<svg width="146" height="40" viewBox="0 0 146 40" fill="none" xmlns="http://www.w3.org/2000/svg">
<g clip-path="url(#clip0_115_14)">
<g filter="url(#filter0_d_115_14)">
<g clip-path="url(#paint0_diamond_115_14_clip_path)" data-figma-skip-parse="true"><g transform="matrix(0.0390007 -1.22423e-08 -1.2484e-07 -0.39771 4.00066 20.0004)"><rect x="0" y="0" width="948.718" height="52.8033" fill="url(#paint0_diamond_115_14)" opacity="1" shape-rendering="crispEdges"/><rect x="0" y="0" width="948.718" height="52.8033" transform="scale(1 -1)" fill="url(#paint0_diamond_115_14)" opacity="1" shape-rendering="crispEdges"/><rect x="0" y="0" width="948.718" height="52.8033" transform="scale(-1 1)" fill="url(#paint0_diamond_115_14)" opacity="1" shape-rendering="crispEdges"/><rect x="0" y="0" width="948.718" height="52.8033" transform="scale(-1)" fill="url(#paint0_diamond_115_14)" opacity="1" shape-rendering="crispEdges"/></g></g><path fill-rule="evenodd" clip-rule="evenodd" d="M35.2165 7.02016C28.0478 -1.38317 15.4241 -2.38397 7.02074 4.78481C-1.38259 11.9536 -2.38339 24.5773 4.78539 32.9806C11.9542 41.3839 24.5779 42.3847 32.9812 35.216C41.3845 28.0472 42.3853 15.4235 35.2165 7.02016ZM25.2525 17.5175C26.0232 17.5175 26.5155 18.3527 26.1287 19.0194L26.0175 19.2111L18.4695 31.6294C18.3293 31.8602 18.0788 32.001 17.8088 32.001H17.0883C16.5945 32.001 16.2336 31.5349 16.3573 31.0569L18.4054 23.1384C18.5691 22.5053 18.0912 21.888 17.4372 21.888H14.4382H14.2914C13.6375 21.888 13.1596 21.2708 13.3232 20.6377L16.4137 8.68289C16.526 8.28056 16.8904 7.99734 17.3081 8.00208C17.3586 8.00266 17.4046 8.0035 17.4427 8.0047H20.5185L20.6109 8.00465C21.217 8.00436 21.684 8.53896 21.6022 9.13949L21.5828 9.28246L20.3746 16.349C20.2701 16.9598 20.7406 17.5175 21.3603 17.5175H25.2525Z" data-figma-gradient-fill="{&#34;type&#34;:&#34;GRADIENT_DIAMOND&#34;,&#34;stops&#34;:[{&#34;color&#34;:{&#34;r&#34;:0.19215686619281769,&#34;g&#34;:0.69803923368453979,&#34;b&#34;:0.95294117927551270,&#34;a&#34;:1.0},&#34;position&#34;:0.0},{&#34;color&#34;:{&#34;r&#34;:0.94901961088180542,&#34;g&#34;:0.48627451062202454,&#34;b&#34;:0.92549020051956177,&#34;a&#34;:1.0},&#34;position&#34;:0.47395834326744080},{&#34;color&#34;:{&#34;r&#34;:0.99215686321258545,&#34;g&#34;:0.40000000596046448,&#34;b&#34;:0.25490197539329529,&#34;a&#34;:1.0},&#34;position&#34;:1.0}],&#34;stopsVar&#34;:[],&#34;transform&#34;:{&#34;m00&#34;:78.001495361328125,&#34;m01&#34;:-0.00024967981153167784,&#34;m02&#34;:-34.999965667724609,&#34;m10&#34;:-2.4484554160153493e-05,&#34;m11&#34;:-795.42047119140625,&#34;m12&#34;:417.71066284179688},&#34;opacity&#34;:1.0,&#34;blendMode&#34;:&#34;NORMAL&#34;,&#34;visible&#34;:true}"/>
</g>
<mask id="mask0_115_14" style="mask-type:alpha" maskUnits="userSpaceOnUse" x="0" y="0" width="40" height="41">
<g clip-path="url(#paint1_diamond_115_14_clip_path)" data-figma-skip-parse="true"><g transform="matrix(0.039 -1.2242e-08 -1.24838e-07 -0.397703 4 20.0011)"><rect x="0" y="0" width="955.128" height="53.432" fill="url(#paint1_diamond_115_14)" opacity="1" shape-rendering="crispEdges"/><rect x="0" y="0" width="955.128" height="53.432" transform="scale(1 -1)" fill="url(#paint1_diamond_115_14)" opacity="1" shape-rendering="crispEdges"/><rect x="0" y="0" width="955.128" height="53.432" transform="scale(-1 1)" fill="url(#paint1_diamond_115_14)" opacity="1" shape-rendering="crispEdges"/><rect x="0" y="0" width="955.128" height="53.432" transform="scale(-1)" fill="url(#paint1_diamond_115_14)" opacity="1" shape-rendering="crispEdges"/></g></g><circle cx="20" cy="20.001" r="20" data-figma-gradient-fill="{&#34;type&#34;:&#34;GRADIENT_DIAMOND&#34;,&#34;stops&#34;:[{&#34;color&#34;:{&#34;r&#34;:0.94901961088180542,&#34;g&#34;:0.48627451062202454,&#34;b&#34;:0.92549020051956177,&#34;a&#34;:1.0},&#34;position&#34;:0.0},{&#34;color&#34;:{&#34;r&#34;:0.19215686619281769,&#34;g&#34;:0.69803923368453979,&#34;b&#34;:0.95294117927551270,&#34;a&#34;:1.0},&#34;position&#34;:0.4843750},{&#34;color&#34;:{&#34;r&#34;:0.49166667461395264,&#34;g&#34;:0.45875811576843262,&#34;b&#34;:0.45069444179534912,&#34;a&#34;:1.0},&#34;position&#34;:1.0}],&#34;stopsVar&#34;:[],&#34;transform&#34;:{&#34;m00&#34;:77.999992370605469,&#34;m01&#34;:-0.00024967500939965248,&#34;m02&#34;:-34.999870300292969,&#34;m10&#34;:-2.4484083041897975e-05,&#34;m11&#34;:-795.40515136718750,&#34;m12&#34;:417.70364379882812},&#34;opacity&#34;:1.0,&#34;blendMode&#34;:&#34;NORMAL&#34;,&#34;visible&#34;:true}"/>
</mask>
<g mask="url(#mask0_115_14)">
<g filter="url(#filter1_f_115_14)">
<path d="M1.11145 13.4267C0.0703174 16.4179 -0.245523 19.6136 0.189923 22.7507C0.62537 25.8879 1.79965 28.8768 3.61611 31.4713C5.43256 34.0659 7.83925 36.192 10.6381 37.6746C13.4369 39.1572 16.5478 39.9538 19.7147 39.999C22.8816 40.0442 26.0139 39.3366 28.8539 37.9345C31.6939 36.5324 34.1602 34.4758 36.05 31.9341C37.9397 29.3924 39.1988 26.4383 39.7236 23.3148C40.2483 20.1914 40.0238 16.9879 39.0684 13.9682L33.2532 15.808C33.9172 17.9068 34.0732 20.1333 33.7085 22.3042C33.3438 24.4751 32.4687 26.5283 31.1552 28.2949C29.8418 30.0615 28.1276 31.4908 26.1537 32.4653C24.1799 33.4399 22.0028 33.9316 19.8017 33.9002C17.6006 33.8688 15.4384 33.3151 13.4932 32.2847C11.5479 31.2543 9.87518 29.7766 8.61269 27.9733C7.35019 26.1699 6.53403 24.0926 6.23138 21.9122C5.92873 19.7317 6.14825 17.5106 6.87187 15.4316L1.11145 13.4267Z" fill="white"/>
</g>
</g>
<path d="M55.5439 34.4466V14.7628L66.1531 32.9051C67.0306 34.3676 68.5063 34.9605 70.2213 34.9605C72.3351 34.9605 74.2895 33.4585 74.2895 30.8103V7.84585H68.7855V27.4111L58.1763 9.38735C57.2988 7.9249 55.9029 7.29249 54.148 7.29249C51.9543 7.29249 50 8.83399 50 11.4822V34.4466H55.5439Z" fill="white"/>
<path d="M83.6769 11.9565C85.5913 11.9565 87.1468 10.415 87.1468 8.47826C87.1468 6.58103 85.5913 5 83.6769 5C81.7625 5 80.1671 6.58103 80.1671 8.47826C80.1671 10.415 81.7625 11.9565 83.6769 11.9565ZM80.8451 14.8814V34.4466H86.5087V14.8814H80.8451Z" fill="white"/>
<path d="M102.214 35C103.61 35 105.325 34.6838 106.322 34.0514V29.0316C105.365 29.6245 103.889 29.9802 102.733 29.9802C100.659 29.9802 99.3427 28.7154 99.3427 26.5415V19.6245H106.322V14.8814H99.3427V9.90119H93.6791V14.8814H90.0496V19.6245H93.6791V26.6996C93.6791 31.6008 96.5109 35 102.214 35Z" fill="white"/>
<path d="M116.053 34.4466V23.419C116.053 21.087 117.409 19.664 119.642 19.664C120.679 19.664 121.836 19.9407 122.793 20.4941V15.0395C121.796 14.6047 120.4 14.3676 119.124 14.3676C113.261 14.3676 110.389 18.2016 110.389 23.2213V34.4466H116.053Z" fill="white"/>
<path d="M135.271 34.9605C141.334 34.9605 146 30.2964 146 24.6047C146 18.9921 141.373 14.2885 135.271 14.2885C129.249 14.2885 124.582 18.9526 124.582 24.6047C124.582 30.2964 129.209 34.9605 135.271 34.9605ZM135.271 29.7036C132.36 29.7036 130.246 27.4111 130.246 24.6443C130.246 21.8775 132.36 19.585 135.271 19.585C138.183 19.585 140.336 21.8775 140.336 24.6443C140.336 27.4111 138.183 29.7036 135.271 29.7036Z" fill="white"/>
</g>
<defs>
<filter id="filter0_d_115_14" x="-6.99942" y="-7" width="54.0008" height="54.0008" filterUnits="userSpaceOnUse" color-interpolation-filters="sRGB">
<feFlood flood-opacity="0" result="BackgroundImageFix"/>
<feColorMatrix in="SourceAlpha" type="matrix" values="0 0 0 0 0 0 0 0 0 0 0 0 0 0 0 0 0 0 127 0" result="hardAlpha"/>
<feOffset/>
<feGaussianBlur stdDeviation="3.5"/>
<feComposite in2="hardAlpha" operator="out"/>
<feColorMatrix type="matrix" values="0 0 0 0 0.94902 0 0 0 0 0.486275 0 0 0 0 0.92549 0 0 0 0.25 0"/>
<feBlend mode="normal" in2="BackgroundImageFix" result="effect1_dropShadow_115_14"/>
<feBlend mode="normal" in="SourceGraphic" in2="effect1_dropShadow_115_14" result="shape"/>
</filter>
<clipPath id="paint0_diamond_115_14_clip_path"><path fill-rule="evenodd" clip-rule="evenodd" d="M35.2165 7.02016C28.0478 -1.38317 15.4241 -2.38397 7.02074 4.78481C-1.38259 11.9536 -2.38339 24.5773 4.78539 32.9806C11.9542 41.3839 24.5779 42.3847 32.9812 35.216C41.3845 28.0472 42.3853 15.4235 35.2165 7.02016ZM25.2525 17.5175C26.0232 17.5175 26.5155 18.3527 26.1287 19.0194L26.0175 19.2111L18.4695 31.6294C18.3293 31.8602 18.0788 32.001 17.8088 32.001H17.0883C16.5945 32.001 16.2336 31.5349 16.3573 31.0569L18.4054 23.1384C18.5691 22.5053 18.0912 21.888 17.4372 21.888H14.4382H14.2914C13.6375 21.888 13.1596 21.2708 13.3232 20.6377L16.4137 8.68289C16.526 8.28056 16.8904 7.99734 17.3081 8.00208C17.3586 8.00266 17.4046 8.0035 17.4427 8.0047H20.5185L20.6109 8.00465C21.217 8.00436 21.684 8.53896 21.6022 9.13949L21.5828 9.28246L20.3746 16.349C20.2701 16.9598 20.7406 17.5175 21.3603 17.5175H25.2525Z"/></clipPath><clipPath id="paint1_diamond_115_14_clip_path"><circle cx="20" cy="20.001" r="20"/></clipPath><filter id="filter1_f_115_14" x="-10" y="3.42665" width="60" height="46.5744" filterUnits="userSpaceOnUse" color-interpolation-filters="sRGB">
<feFlood flood-opacity="0" result="BackgroundImageFix"/>
<feBlend mode="normal" in="SourceGraphic" in2="BackgroundImageFix" result="shape"/>
<feGaussianBlur stdDeviation="5" result="effect1_foregroundBlur_115_14"/>
</filter>
<linearGradient id="paint0_diamond_115_14" x1="0" y1="0" x2="500" y2="500" gradientUnits="userSpaceOnUse">
<stop stop-color="#31B2F3"/>
<stop offset="0.473958" stop-color="#F27CEC"/>
<stop offset="1" stop-color="#FD6641"/>
</linearGradient>
<linearGradient id="paint1_diamond_115_14" x1="0" y1="0" x2="500" y2="500" gradientUnits="userSpaceOnUse">
<stop stop-color="#F27CEC"/>
<stop offset="0.484375" stop-color="#31B2F3"/>
<stop offset="1" stop-color="#7D7573"/>
</linearGradient>
<clipPath id="clip0_115_14">
<rect width="146" height="40.001" fill="white"/>
</clipPath>
</defs>
</svg>
